<mxfile host="app.diagrams.net" modified="2023-11-02T12:12:41.914Z" agent="Mozilla/5.0 (X11; Linux x86_64) AppleWebKit/537.36 (KHTML, like Gecko) Chrome/118.0.0.0 Safari/537.36" version="22.0.8" etag="23TcHeRxyNrVQtYZz7jN" type="github">
  <diagram name="第 1 页" id="pEtvV0hqjZ0riv77167H">
    <mxGraphModel>
      <root>
        <mxCell id="0" />
        <mxCell id="1" parent="0" />
      </root>
    </mxGraphModel>
  </diagram>
</mxfile>
